<!--?xml version="1.0" standalone="no"?-->
              <svg id="sw-js-blob-svg" viewBox="0 0 100 100" xmlns="http://www.w3.org/2000/svg" version="1.1">
                    <defs> 
                        <linearGradient id="sw-gradient" x1="0" x2="1" y1="1" y2="0">
                            <stop id="stop1" stop-color="rgba(39.735, 226.576, 217.082, 1)" offset="0%"></stop>
                            <stop id="stop2" stop-color="rgba(0, 198.943, 234.722, 1)" offset="100%"></stop>
                        </linearGradient>
                    </defs>
                <path fill="url(#sw-gradient)" d="M22.4,-40.1C28.2,-35.4,31.6,-27.8,35.6,-20.6C39.7,-13.5,44.4,-6.7,44.2,-0.1C44.1,6.6,39.1,13.1,34.4,19.1C29.6,25,25.1,30.3,19.4,33.7C13.7,37.1,6.9,38.5,0.2,38.2C-6.5,37.8,-12.9,35.7,-18.4,32.2C-23.9,28.7,-28.3,23.8,-33.4,18.2C-38.5,12.6,-44.1,6.3,-45.6,-0.9C-47.1,-8,-44.5,-16.1,-39.5,-21.9C-34.6,-27.8,-27.4,-31.4,-20.4,-35.4C-13.5,-39.4,-6.7,-43.8,0.8,-45.1C8.3,-46.5,16.6,-44.7,22.4,-40.1Z" width="100%" height="100%" transform="translate(50 50)" stroke-width="0" style="transition: all 0.3s ease 0s;" stroke="url(#sw-gradient)"></path>
              </svg>