<!--?xml version="1.0" standalone="no"?-->
              <svg id="sw-js-blob-svg" viewBox="0 0 100 100" xmlns="http://www.w3.org/2000/svg" version="1.1">
                    <defs> 
                        <linearGradient id="sw-gradient" x1="0" x2="1" y1="1" y2="0">
                            <stop id="stop1" stop-color="rgba(39.735, 226.576, 217.082, 1)" offset="0%"></stop>
                            <stop id="stop2" stop-color="rgba(0, 198.943, 234.722, 1)" offset="100%"></stop>
                        </linearGradient>
                    </defs>
                <path fill="url(#sw-gradient)" d="M17.2,-30.6C22.7,-26.6,27.8,-22.8,33,-17.7C38.1,-12.7,43.3,-6.3,42.7,-0.3C42.1,5.7,35.7,11.3,31.1,17.2C26.4,23.1,23.5,29.3,18.6,33.6C13.7,38,6.8,40.4,0.4,39.8C-6.1,39.1,-12.2,35.4,-17.4,31.3C-22.6,27.2,-26.9,22.6,-30.3,17.3C-33.6,12,-36,6,-37.6,-0.9C-39.3,-7.9,-40.1,-15.8,-37.1,-21.6C-34,-27.3,-27,-31,-20.2,-34.2C-13.3,-37.4,-6.7,-40.1,-0.4,-39.4C5.9,-38.7,11.7,-34.6,17.2,-30.6Z" width="100%" height="100%" transform="translate(50 50)" stroke-width="0" style="transition: all 0.3s ease 0s;" stroke="url(#sw-gradient)"></path>
              </svg>