<svg id="visual" viewBox="0 0 2560 1440" width="2560" height="1440" xmlns="http://www.w3.org/2000/svg" xmlns:xlink="http://www.w3.org/1999/xlink" version="1.1"><rect x="0" y="0" width="2560" height="1440" fill="transparent"></rect><path d="M0 879L366 923L731 1046L1097 968L1463 928L1829 877L2194 940L2560 955L2560 1441L2194 1441L1829 1441L1463 1441L1097 1441L731 1441L366 1441L0 1441Z" fill="#0aaef5"></path><path d="M0 1147L366 1048L731 1131L1097 1001L1463 953L1829 1025L2194 1059L2560 1011L2560 1441L2194 1441L1829 1441L1463 1441L1097 1441L731 1441L366 1441L0 1441Z" fill="#029ad8"></path><path d="M0 1203L366 1215L731 1174L1097 1129L1463 1208L1829 1183L2194 1135L2560 1203L2560 1441L2194 1441L1829 1441L1463 1441L1097 1441L731 1441L366 1441L0 1441Z" fill="#0087bc"></path><path d="M0 1228L366 1233L731 1193L1097 1278L1463 1260L1829 1178L2194 1240L2560 1270L2560 1441L2194 1441L1829 1441L1463 1441L1097 1441L731 1441L366 1441L0 1441Z" fill="#0074a1"></path><path d="M0 1270L366 1298L731 1302L1097 1340L1463 1359L1829 1265L2194 1287L2560 1262L2560 1441L2194 1441L1829 1441L1463 1441L1097 1441L731 1441L366 1441L0 1441Z" fill="#006287"></path></svg>