<svg id="visual" viewBox="0 0 2560 1440" width="2560" height="1440" xmlns="http://www.w3.org/2000/svg" xmlns:xlink="http://www.w3.org/1999/xlink" version="1.1"><rect x="0" y="0" width="2560" height="1440" fill="transparent"></rect><path d="M0 1109L61 1091.2C122 1073.3 244 1037.7 365.8 1004.3C487.7 971 609.3 940 731.2 934.2C853 928.3 975 947.7 1097 984C1219 1020.3 1341 1073.7 1463 1096.2C1585 1118.7 1707 1110.3 1828.8 1076.8C1950.7 1043.3 2072.3 984.7 2194.2 990.8C2316 997 2438 1068 2499 1103.5L2560 1139L2560 1441L2499 1441C2438 1441 2316 1441 2194.2 1441C2072.3 1441 1950.7 1441 1828.8 1441C1707 1441 1585 1441 1463 1441C1341 1441 1219 1441 1097 1441C975 1441 853 1441 731.2 1441C609.3 1441 487.7 1441 365.8 1441C244 1441 122 1441 61 1441L0 1441Z" fill="#2bcaba" stroke-linecap="round" stroke-linejoin="miter"></path></svg>